<svg width="146" height="25" viewBox="0 0 146 25" fill="none" xmlns="http://www.w3.org/2000/svg">
<path d="M30.3035 6.24375C30.2115 5.87125 29.95 5.59 29.6511 5.50375C29.1209 5.35 26.5438 5 21.0969 5C15.6499 5 13.074 5.35 12.5402 5.50375C12.2449 5.58875 11.9834 5.87 11.8902 6.24375C11.7583 6.77375 11.4133 8.99375 11.4133 12.5C11.4133 16.005 11.7583 18.225 11.8902 18.7575C11.9822 19.1287 12.2437 19.41 12.5414 19.495C13.074 19.65 15.6486 20 21.0956 20C26.5426 20 29.1197 19.65 29.6523 19.4963C29.9476 19.4113 30.2091 19.13 30.3023 18.7562C30.4354 18.2262 30.7792 16 30.7792 12.5C30.7792 9 30.4354 6.775 30.3035 6.24375ZM32.6469 5.6225C33.2001 7.85 33.2001 12.5 33.2001 12.5C33.2001 12.5 33.2001 17.15 32.6469 19.3775C32.3394 20.6088 31.4401 21.5775 30.3011 21.905C28.2336 22.5 21.0956 22.5 21.0956 22.5C21.0956 22.5 13.9625 22.5 11.8902 21.905C10.7464 21.5725 9.8482 20.605 9.54438 19.3775C8.99121 17.15 8.99121 12.5 8.99121 12.5C8.99121 12.5 8.99121 7.85 9.54438 5.6225C9.85184 4.39125 10.7512 3.4225 11.8902 3.095C13.9637 2.5 21.0969 2.5 21.0969 2.5C21.0969 2.5 28.2336 2.5 30.3023 3.095C31.4449 3.4275 32.3443 4.395 32.6481 5.6225M18.676 16.875V8.125L25.9386 12.5L18.676 16.875Z" fill="white"/>
<path d="M70.2208 0H80.3885C84.2619 0 87.4091 3.25 87.4091 7.25V17.75C87.4091 19.6728 86.6694 21.5169 85.3528 22.8765C84.0362 24.2362 82.2505 25 80.3885 25H70.2208C66.3473 25 63.2002 21.75 63.2002 17.75V7.25C63.2002 5.32718 63.9399 3.48311 65.2565 2.12348C66.5731 0.763837 68.3588 0 70.2208 0ZM69.9787 2.5C68.823 2.5 67.7146 2.97411 66.8974 3.81802C66.0802 4.66193 65.6211 5.80653 65.6211 7V18C65.6211 20.4875 67.5699 22.5 69.9787 22.5H80.6306C81.7863 22.5 82.8947 22.0259 83.7119 21.182C84.5291 20.3381 84.9882 19.1935 84.9882 18V7C84.9882 4.5125 83.0394 2.5 80.6306 2.5H69.9787ZM81.6595 4.375C82.0607 4.375 82.4456 4.53962 82.7293 4.83265C83.0131 5.12567 83.1725 5.5231 83.1725 5.9375C83.1725 6.3519 83.0131 6.74933 82.7293 7.04235C82.4456 7.33538 82.0607 7.5 81.6595 7.5C81.2582 7.5 80.8733 7.33538 80.5896 7.04235C80.3058 6.74933 80.1464 6.3519 80.1464 5.9375C80.1464 5.5231 80.3058 5.12567 80.5896 4.83265C80.8733 4.53962 81.2582 4.375 81.6595 4.375ZM75.3046 6.25C76.9098 6.25 78.4492 6.90848 79.5842 8.08058C80.7192 9.25268 81.3568 10.8424 81.3568 12.5C81.3568 14.1576 80.7192 15.7473 79.5842 16.9194C78.4492 18.0915 76.9098 18.75 75.3046 18.75C73.6995 18.75 72.1601 18.0915 71.0251 16.9194C69.8901 15.7473 69.2524 14.1576 69.2524 12.5C69.2524 10.8424 69.8901 9.25268 71.0251 8.08058C72.1601 6.90848 73.6995 6.25 75.3046 6.25ZM75.3046 8.75C74.3415 8.75 73.4179 9.14509 72.7369 9.84835C72.0559 10.5516 71.6733 11.5054 71.6733 12.5C71.6733 13.4946 72.0559 14.4484 72.7369 15.1517C73.4179 15.8549 74.3415 16.25 75.3046 16.25C76.2677 16.25 77.1914 15.8549 77.8724 15.1517C78.5534 14.4484 78.936 13.4946 78.936 12.5C78.936 11.5054 78.5534 10.5516 77.8724 9.84835C77.1914 9.14509 76.2677 8.75 75.3046 8.75Z" fill="white"/>
<path d="M132.959 4.775C132.105 3.79953 131.634 2.54679 131.634 1.25H127.772V16.75C127.742 17.5888 127.388 18.3833 126.784 18.9662C126.18 19.5491 125.373 19.8749 124.534 19.875C122.759 19.875 121.284 18.425 121.284 16.625C121.284 14.475 123.359 12.8625 125.497 13.525V9.575C121.184 9 117.409 12.35 117.409 16.625C117.409 20.7875 120.859 23.75 124.522 23.75C128.447 23.75 131.634 20.5625 131.634 16.625V8.7625C133.2 9.88731 135.081 10.4908 137.009 10.4875V6.625C137.009 6.625 134.659 6.7375 132.959 4.775Z" fill="white"/>
</svg>
